<svg width="60" height="72" viewBox="0 0 60 72" fill="none" xmlns="http://www.w3.org/2000/svg">
<path d="M53.2812 9H50C48.9583 7.03125 46.7188 6.04688 43.2812 6.04688H33.2812V2.95312C33.2812 0.984375 32.1875 0 30 0C27.8125 0 26.7188 0.984375 26.7188 2.95312V6.04688H16.7188C13.2812 6.04688 11.0417 7.03125 10 9H6.71875C4.84375 9 3.25521 9.60938 1.95312 10.8281C0.651042 12.0469 0 13.5469 0 15.3281V65.9531C0 67.6406 0.651042 69.0703 1.95312 70.2422C3.25521 71.4141 4.84375 72 6.71875 72H53.2812C55.1562 72 56.7448 71.3906 58.0469 70.1719C59.349 68.9531 60 67.4531 60 65.6719V15.3281C60 13.5469 59.349 12.0469 58.0469 10.8281C56.7448 9.60938 55.1562 9 53.2812 9ZM18.2812 11.9531H41.7188C42.7604 11.9531 43.2812 12.4688 43.2812 13.5C43.2812 14.5312 42.7604 15.0469 41.7188 15.0469H18.2812C17.2396 15.0469 16.7188 14.5312 16.7188 13.5C16.7188 12.4688 17.2396 11.9531 18.2812 11.9531ZM53.2812 65.9531H6.71875V15.0469H10C10.1042 15.5156 10.3125 16.0781 10.625 16.7344C10.9375 17.3906 11.6927 18.2578 12.8906 19.3359C14.0885 20.4141 15.3646 20.9531 16.7188 20.9531H43.2812C47.0312 20.9531 49.2708 18.9844 50 15.0469H53.2812V65.9531Z" fill="#00255C"/>
</svg>
