<svg width="66" height="60" viewBox="0 0 66 60" fill="none" xmlns="http://www.w3.org/2000/svg">
<path d="M57 0C59.3869 0 61.6761 0.948212 63.364 2.63604C65.0518 4.32387 66 6.61305 66 9V15H60V51C60 53.3869 59.0518 55.6761 57.364 57.364C55.6761 59.0518 53.3869 60 51 60H9C6.61305 60 4.32387 59.0518 2.63604 57.364C0.948211 55.6761 0 53.3869 0 51V45H48V51C48.0001 51.7348 48.2699 52.444 48.7581 52.9931C49.2464 53.5422 49.9192 53.893 50.649 53.979L51 54C51.7348 53.9999 52.444 53.7301 52.9931 53.2419C53.5422 52.7536 53.893 52.0808 53.979 51.351L54 51V6H15C14.2652 6.0001 13.556 6.26987 13.0069 6.75815C12.4578 7.24642 12.107 7.91925 12.021 8.649L12 9V39H6V9C6 6.61305 6.94821 4.32387 8.63604 2.63604C10.3239 0.948212 12.6131 0 15 0H57Z" fill="#ffffff"/>
</svg>
