<svg width="58" height="58" viewBox="0 0 58 58" fill="none" xmlns="http://www.w3.org/2000/svg">
<path d="M54.875 5.9375H43.0625V1.4375C43.0625 1.12812 42.8094 0.875 42.5 0.875H38.5625C38.2531 0.875 38 1.12812 38 1.4375V5.9375H20V1.4375C20 1.12812 19.7469 0.875 19.4375 0.875H15.5C15.1906 0.875 14.9375 1.12812 14.9375 1.4375V5.9375H3.125C1.88047 5.9375 0.875 6.94297 0.875 8.1875V54.875C0.875 56.1195 1.88047 57.125 3.125 57.125H54.875C56.1195 57.125 57.125 56.1195 57.125 54.875V8.1875C57.125 6.94297 56.1195 5.9375 54.875 5.9375ZM52.0625 52.0625H5.9375V25.3438H52.0625V52.0625ZM5.9375 20.5625V11H14.9375V14.375C14.9375 14.6844 15.1906 14.9375 15.5 14.9375H19.4375C19.7469 14.9375 20 14.6844 20 14.375V11H38V14.375C38 14.6844 38.2531 14.9375 38.5625 14.9375H42.5C42.8094 14.9375 43.0625 14.6844 43.0625 14.375V11H52.0625V20.5625H5.9375Z" fill="#00255C"/>
</svg>
