<svg width="60" height="72" viewBox="0 0 60 72" fill="none" xmlns="http://www.w3.org/2000/svg">
<path d="M10 38.25C10 37.6533 10.2634 37.081 10.7322 36.659C11.2011 36.2371 11.837 36 12.5 36C13.163 36 13.7989 36.2371 14.2678 36.659C14.7366 37.081 15 37.6533 15 38.25C15 38.8467 14.7366 39.419 14.2678 39.841C13.7989 40.263 13.163 40.5 12.5 40.5C11.837 40.5 11.2011 40.263 10.7322 39.841C10.2634 39.419 10 38.8467 10 38.25ZM12.5 45C11.837 45 11.2011 45.2371 10.7322 45.659C10.2634 46.081 10 46.6533 10 47.25C10 47.8467 10.2634 48.419 10.7322 48.841C11.2011 49.263 11.837 49.5 12.5 49.5C13.163 49.5 13.7989 49.263 14.2678 48.841C14.7366 48.419 15 47.8467 15 47.25C15 46.6533 14.7366 46.081 14.2678 45.659C13.7989 45.2371 13.163 45 12.5 45ZM10 56.25C10 55.6533 10.2634 55.081 10.7322 54.659C11.2011 54.2371 11.837 54 12.5 54C13.163 54 13.7989 54.2371 14.2678 54.659C14.7366 55.081 15 55.6533 15 56.25C15 56.8467 14.7366 57.419 14.2678 57.841C13.7989 58.263 13.163 58.5 12.5 58.5C11.837 58.5 11.2011 58.263 10.7322 57.841C10.2634 57.419 10 56.8467 10 56.25ZM22.5 36C21.837 36 21.2011 36.2371 20.7322 36.659C20.2634 37.081 20 37.6533 20 38.25C20 38.8467 20.2634 39.419 20.7322 39.841C21.2011 40.263 21.837 40.5 22.5 40.5H47.5C48.163 40.5 48.7989 40.263 49.2678 39.841C49.7366 39.419 50 38.8467 50 38.25C50 37.6533 49.7366 37.081 49.2678 36.659C48.7989 36.2371 48.163 36 47.5 36H22.5ZM20 47.25C20 46.6533 20.2634 46.081 20.7322 45.659C21.2011 45.2371 21.837 45 22.5 45H47.5C48.163 45 48.7989 45.2371 49.2678 45.659C49.7366 46.081 50 46.6533 50 47.25C50 47.8467 49.7366 48.419 49.2678 48.841C48.7989 49.263 48.163 49.5 47.5 49.5H22.5C21.837 49.5 21.2011 49.263 20.7322 48.841C20.2634 48.419 20 47.8467 20 47.25ZM22.5 54C21.837 54 21.2011 54.2371 20.7322 54.659C20.2634 55.081 20 55.6533 20 56.25C20 56.8467 20.2634 57.419 20.7322 57.841C21.2011 58.263 21.837 58.5 22.5 58.5H47.5C48.163 58.5 48.7989 58.263 49.2678 57.841C49.7366 57.419 50 56.8467 50 56.25C50 55.6533 49.7366 55.081 49.2678 54.659C48.7989 54.2371 48.163 54 47.5 54H22.5ZM10 0C7.34783 0 4.8043 0.948211 2.92893 2.63604C1.05357 4.32387 0 6.61305 0 9V63C0 65.3869 1.05357 67.6761 2.92893 69.364C4.8043 71.0518 7.34783 72 10 72H50C52.6522 72 55.1957 71.0518 57.0711 69.364C58.9464 67.6761 60 65.3869 60 63V24.363C59.9982 22.5734 59.2069 20.8577 57.8 19.593L38.23 1.9755C36.824 0.710917 34.9177 0.000381966 32.93 0H10ZM5 9C5 7.80653 5.52678 6.66193 6.46447 5.81802C7.40215 4.97411 8.67392 4.5 10 4.5H30V20.25C30 22.0402 30.7902 23.7571 32.1967 25.023C33.6032 26.2888 35.5109 27 37.5 27H55V63C55 64.1935 54.4732 65.3381 53.5355 66.182C52.5978 67.0259 51.3261 67.5 50 67.5H10C8.67392 67.5 7.40215 67.0259 6.46447 66.182C5.52678 65.3381 5 64.1935 5 63V9ZM53.965 22.5H37.5C36.837 22.5 36.2011 22.2629 35.7322 21.841C35.2634 21.419 35 20.8467 35 20.25V5.4315L53.965 22.5Z" fill="#ffffff"/>
</svg>
