<svg width="46" height="64" viewBox="0 0 46 64" fill="none" xmlns="http://www.w3.org/2000/svg">
<path d="M44.825 16.925L29.075 1.175C28.877 0.955156 28.6336 0.780938 28.3617 0.664393C28.0898 0.547848 27.7957 0.491758 27.5 0.499999H5C3.80762 0.503561 2.6651 0.97881 1.82195 1.82195C0.978811 2.6651 0.503561 3.80762 0.5 5V59C0.503561 60.1924 0.978811 61.3349 1.82195 62.178C2.6651 63.0212 3.80762 63.4964 5 63.5H41C42.1924 63.4964 43.3349 63.0212 44.178 62.178C45.0212 61.3349 45.4964 60.1924 45.5 59V18.5C45.5082 18.2043 45.4521 17.9102 45.3356 17.6383C45.2191 17.3664 45.0448 17.123 44.825 16.925V16.925ZM27.5 5.9L40.1 18.5H27.5V5.9ZM41 59H5V5H23V18.5C23.0036 19.6924 23.4788 20.8349 24.322 21.678C25.1651 22.5212 26.3076 22.9964 27.5 23H41V59Z" fill="#00255C"/>
</svg>
