<svg width="66" height="66" viewBox="0 0 66 66" fill="none" xmlns="http://www.w3.org/2000/svg">
<path d="M18.6001 0.599998C21.2257 0.599998 23.7438 1.64303 25.6005 3.49964C27.4571 5.35625 28.5001 7.87436 28.5001 10.5C28.5001 13.1256 27.4571 15.6437 25.6005 17.5004C23.7438 19.357 21.2257 20.4 18.6001 20.4C15.9745 20.4 13.4564 19.357 11.5997 17.5004C9.74313 15.6437 8.7001 13.1256 8.7001 10.5C8.7001 7.87436 9.74313 5.35625 11.5997 3.49964C13.4564 1.64303 15.9745 0.599998 18.6001 0.599998ZM18.6001 4.2C16.9292 4.2 15.3268 4.86375 14.1453 6.04523C12.9638 7.22671 12.3001 8.82913 12.3001 10.5C12.3001 12.1709 12.9638 13.7733 14.1453 14.9548C15.3268 16.1363 16.9292 16.8 18.6001 16.8C20.271 16.8 21.8734 16.1363 23.0549 14.9548C24.2364 13.7733 24.9001 12.1709 24.9001 10.5C24.9001 8.82913 24.2364 7.22671 23.0549 6.04523C21.8734 4.86375 20.271 4.2 18.6001 4.2ZM21.0589 24H6.0001C4.56793 24 3.19442 24.5689 2.18172 25.5816C1.16902 26.5943 0.600098 27.9678 0.600098 29.4V31.2C0.600098 36.9132 4.9417 42.7632 12.5341 44.8224C13.2181 43.5948 14.1865 42.54 15.3457 41.7516C8.1601 40.6104 4.2001 35.7324 4.2001 31.2V29.4C4.2001 28.9226 4.38974 28.4648 4.72731 28.1272C5.06487 27.7896 5.52271 27.6 6.0001 27.6H19.7701C20.0293 26.3256 20.4685 25.116 21.0589 24ZM33.0001 20.4C30.8442 20.3962 28.7462 21.0979 27.0263 22.3979C25.3064 23.6979 24.059 25.5248 23.4745 27.6C23.0902 28.9595 23.0012 30.3855 23.2133 31.7822C23.4254 33.1789 23.9338 34.5142 24.7043 35.6983C25.4749 36.8824 26.4898 37.888 27.6809 38.6477C28.872 39.4074 30.2119 39.9035 31.6105 40.1028C32.2729 38.8212 33.0721 37.6188 33.9901 36.5208C32.7896 36.711 31.5596 36.551 30.4477 36.06C29.335 35.5663 28.3891 34.7609 27.7245 33.7411C27.0598 32.7212 26.7049 31.5306 26.7025 30.3133C26.7002 29.096 27.0506 27.9041 27.7113 26.8817C28.3721 25.8593 29.3148 25.0503 30.4257 24.5524C31.5365 24.0545 32.7678 23.889 33.9706 24.0761C35.1735 24.2632 36.2964 24.7947 37.2035 25.6064C38.1107 26.4182 38.7632 27.4753 39.0823 28.6501C39.4013 29.8249 39.3732 31.0669 39.0013 32.226C40.2315 31.4858 41.5388 30.8822 42.9001 30.426V30.3C42.8989 28.0009 42.0984 25.7738 40.6357 24C38.8213 21.804 36.0745 20.4 33.0001 20.4ZM64.2373 36.3192C63.3914 35.3321 62.451 34.4302 61.4293 33.6264C61.6741 32.8236 61.8001 32.0064 61.8001 31.2V29.4C61.8001 28.9226 61.6105 28.4648 61.2729 28.1272C60.9353 27.7896 60.4775 27.6 60.0001 27.6H46.2301C45.9758 26.3448 45.543 25.1325 44.9449 24H60.0001C61.4323 24 62.8058 24.5689 63.8185 25.5816C64.8312 26.5943 65.4001 27.9678 65.4001 29.4V31.2C65.4001 32.928 65.0041 34.6704 64.2373 36.3192ZM30.1453 43.8H20.4001C19.6904 43.7981 18.9874 43.9365 18.3314 44.2072C17.6753 44.4779 17.0793 44.8756 16.5775 45.3774C16.0757 45.8792 15.678 46.4753 15.4073 47.1313C15.1366 47.7873 14.9982 48.4903 15.0001 49.2V51C15.0001 58.0956 21.6961 65.4 33.0001 65.4C34.5157 65.4 35.9521 65.2668 37.2985 65.022C36.0458 64.079 34.9087 62.9915 33.9109 61.782C33.6075 61.7942 33.3038 61.8002 33.0001 61.8C23.7553 61.8 18.6001 56.1768 18.6001 51V49.2C18.6001 48.7226 18.7897 48.2648 19.1273 47.9272C19.4649 47.5896 19.9227 47.4 20.4001 47.4H29.4793C29.5892 46.1819 29.8122 44.9768 30.1453 43.8ZM57.3001 10.5C57.3001 7.87436 56.2571 5.35625 54.4005 3.49964C52.5438 1.64303 50.0257 0.599998 47.4001 0.599998C44.7745 0.599998 42.2564 1.64303 40.3997 3.49964C38.5431 5.35625 37.5001 7.87436 37.5001 10.5C37.5001 13.1256 38.5431 15.6437 40.3997 17.5004C42.2564 19.357 44.7745 20.4 47.4001 20.4C50.0257 20.4 52.5438 19.357 54.4005 17.5004C56.2571 15.6437 57.3001 13.1256 57.3001 10.5ZM41.1001 10.5C41.1001 8.82913 41.7638 7.22671 42.9453 6.04523C44.1268 4.86375 45.7292 4.2 47.4001 4.2C49.071 4.2 50.6734 4.86375 51.8549 6.04523C53.0364 7.22671 53.7001 8.82913 53.7001 10.5C53.7001 12.1709 53.0364 13.7733 51.8549 14.9548C50.6734 16.1363 49.071 16.8 47.4001 16.8C45.7292 16.8 44.1268 16.1363 42.9453 14.9548C41.7638 13.7733 41.1001 12.1709 41.1001 10.5ZM49.2001 65.4C53.4966 65.4 57.6171 63.6932 60.6552 60.6551C63.6933 57.617 65.4001 53.4965 65.4001 49.2C65.4001 44.9035 63.6933 40.783 60.6552 37.7449C57.6171 34.7068 53.4966 33 49.2001 33C44.9036 33 40.7831 34.7068 37.745 37.7449C34.7069 40.783 33.0001 44.9035 33.0001 49.2C33.0001 53.4965 34.7069 57.617 37.745 60.6551C40.7831 63.6932 44.9036 65.4 49.2001 65.4ZM49.2001 40.2C49.6775 40.2 50.1353 40.3896 50.4729 40.7272C50.8105 41.0648 51.0001 41.5226 51.0001 42V47.4H56.4001C56.8775 47.4 57.3353 47.5896 57.6729 47.9272C58.0105 48.2648 58.2001 48.7226 58.2001 49.2C58.2001 49.6774 58.0105 50.1352 57.6729 50.4728C57.3353 50.8104 56.8775 51 56.4001 51H51.0001V56.4C51.0001 56.8774 50.8105 57.3352 50.4729 57.6728C50.1353 58.0104 49.6775 58.2 49.2001 58.2C48.7227 58.2 48.2649 58.0104 47.9273 57.6728C47.5897 57.3352 47.4001 56.8774 47.4001 56.4V51H42.0001C41.5227 51 41.0649 50.8104 40.7273 50.4728C40.3897 50.1352 40.2001 49.6774 40.2001 49.2C40.2001 48.7226 40.3897 48.2648 40.7273 47.9272C41.0649 47.5896 41.5227 47.4 42.0001 47.4H47.4001V42C47.4001 41.5226 47.5897 41.0648 47.9273 40.7272C48.2649 40.3896 48.7227 40.2 49.2001 40.2Z" fill="#ffffff"/>
</svg>
