<svg width="60" height="57" viewBox="0 0 60 57" fill="none" xmlns="http://www.w3.org/2000/svg">
<path d="M0 6C0 4.4087 0.632141 2.88258 1.75736 1.75736C2.88258 0.632141 4.4087 0 6 0H54C55.5913 0 57.1174 0.632141 58.2426 1.75736C59.3679 2.88258 60 4.4087 60 6V39C60 40.5913 59.3679 42.1174 58.2426 43.2426C57.1174 44.3679 55.5913 45 54 45H33V51H42C42.7957 51 43.5587 51.3161 44.1213 51.8787C44.6839 52.4413 45 53.2043 45 54C45 54.7957 44.6839 55.5587 44.1213 56.1213C43.5587 56.6839 42.7957 57 42 57H18C17.2044 57 16.4413 56.6839 15.8787 56.1213C15.3161 55.5587 15 54.7957 15 54C15 53.2043 15.3161 52.4413 15.8787 51.8787C16.4413 51.3161 17.2044 51 18 51H27V45H6C4.4087 45 2.88258 44.3679 1.75736 43.2426C0.632141 42.1174 0 40.5913 0 39V6ZM54 39V6H6V39H54Z" fill="#ffffff"/>
</svg>
