<svg width="24" height="24" viewBox="0 0 24 24" fill="none" xmlns="http://www.w3.org/2000/svg">
<path d="M20.75 23.375H20.6013C3.40753 22.3863 0.966283 7.87875 0.625033 3.45125C0.597537 3.10701 0.638236 2.76072 0.744799 2.43223C0.851362 2.10375 1.02169 1.79952 1.24604 1.53697C1.47038 1.27443 1.74432 1.05873 2.05217 0.902234C2.36001 0.745742 2.69571 0.651532 3.04003 0.625001H7.86128C8.21177 0.624662 8.55429 0.729572 8.84446 0.926142C9.13464 1.12271 9.3591 1.40189 9.48878 1.7275L10.8188 5C10.9468 5.3181 10.9786 5.66682 10.9102 6.00283C10.8417 6.33884 10.6761 6.64734 10.4338 6.89L8.57003 8.77125C8.86116 10.4257 9.65344 11.9507 10.8397 13.1401C12.0259 14.3295 13.5489 15.1258 15.2025 15.4212L17.1013 13.54C17.3476 13.3004 17.659 13.1386 17.9967 13.0748C18.3343 13.011 18.6833 13.048 19 13.1813L22.2988 14.5025C22.6195 14.6363 22.8931 14.8625 23.0848 15.1523C23.2764 15.4422 23.3775 15.7825 23.375 16.13V20.75C23.375 21.4462 23.0985 22.1139 22.6062 22.6062C22.1139 23.0984 21.4462 23.375 20.75 23.375ZM3.25003 2.375C3.01797 2.375 2.79541 2.46719 2.63132 2.63128C2.46722 2.79538 2.37503 3.01794 2.37503 3.25V3.32C2.77753 8.5 5.35878 20.75 20.6975 21.625C20.8125 21.6321 20.9277 21.6164 21.0366 21.5789C21.1455 21.5414 21.2459 21.4827 21.3321 21.4063C21.4182 21.3299 21.4885 21.2372 21.5387 21.1336C21.589 21.03 21.6183 20.9175 21.625 20.8025V16.13L18.3263 14.8087L15.815 17.3025L15.395 17.25C7.78253 16.2962 6.75003 8.68375 6.75003 8.605L6.69753 8.185L9.18253 5.67375L7.87003 2.375H3.25003Z" fill="#0094C8"/>
</svg>
