<svg width="27" height="28" viewBox="0 0 27 28" fill="none" xmlns="http://www.w3.org/2000/svg">
<path d="M5.59219 14L1.06552 2.36005C0.750853 1.55071 1.54019 0.776048 2.32152 1.05205L2.44552 1.10405L26.4455 13.104C26.6003 13.1813 26.7324 13.2975 26.8288 13.4411C26.9253 13.5847 26.9829 13.7509 26.9959 13.9234C27.0089 14.0959 26.977 14.2688 26.9032 14.4253C26.8294 14.5817 26.7163 14.7164 26.5749 14.816L26.4455 14.8934L2.44552 26.8934C1.66819 27.2814 0.822853 26.5667 1.02552 25.7627L1.06552 25.636L5.59219 14L1.06552 2.36005L5.59219 14ZM3.86952 4.05338L7.34952 13H16.1855C16.4272 13.0001 16.6606 13.0876 16.8428 13.2464C17.0249 13.4052 17.1433 13.6246 17.1762 13.864L17.1855 14C17.1855 14.2419 17.0978 14.4755 16.9387 14.6577C16.7796 14.8398 16.5598 14.9581 16.3202 14.9907L16.1855 15H7.34685L3.86819 23.9467L23.7629 14L3.86819 4.05338H3.86952Z" fill="#F1F4FA"/>
</svg>
